Coordinates
version=1
nRows=13
nColumns=34
inDegrees=yes

Units are S.I. units (second, meters, Newtons, ...)
If the header above contains a line with 'inDegrees', this indicates whether rotational values are in degrees (yes) or radians (no).

endheader
time	pelvis_tilt	pelvis_list	pelvis_rotation	pelvis_tx	pelvis_ty	pelvis_tz	hip_flexion_r	hip_adduction_r	hip_rotation_r	knee_angle_r	ankle_angle_r	subtalar_angle_r	mtp_angle_r	hip_flexion_l	hip_adduction_l	hip_rotation_l	knee_angle_l	ankle_angle_l	subtalar_angle_l	mtp_angle_l	lumbar_extension	lumbar_bending	lumbar_rotation	arm_flex_r	arm_add_r	arm_rot_r	elbow_flex_r	pro_sup_r	arm_flex_l	arm_add_l	arm_rot_l	elbow_flex_l	pro_sup_l
      5.00000000	      3.08376674	    -14.45362332	    -65.65480519	      2.50687966	      1.11119466	      7.11533968	      3.73006319	     -0.48224467	     -7.85811329	     34.54841479	    -11.26160590	     10.34275767	      0.00000000	    -16.63129955	      7.43887504	     10.78435637	      0.00000000	     11.57689871	      2.54930263	      0.00000000	     -4.75782101	     -2.41169795	      8.94628415	      7.24246748	     -4.14097768	     28.80312018	     82.50764301	    119.74817918	     -2.21222729	     -6.08074547	     25.03339357	     88.34065446	    119.74817918
      5.01666670	      3.50072053	    -14.96202329	    -65.40435270	      2.50638234	      1.11130543	      7.11961812	      1.23863560	     -0.20486381	     -7.86875979	     32.41729814	    -10.96921030	      9.13810239	      0.00000000	    -16.97955487	      7.53908720	     12.10368412	      1.18916599	     11.84099281	      0.54326343	      0.00000000	     -5.04876839	     -2.94309143	      8.90570026	      7.37971791	     -4.26783077	     28.07024454	     82.66005023	    119.74817918	     -2.29375292	     -6.95368674	     26.23775596	     88.34313955	    119.74817918
      5.03333330	      4.08297078	    -14.97546256	    -65.55785609	      2.50457174	      1.11046774	      7.12192218	     -0.33215630	     -0.50469178	     -7.55122675	     31.01526900	     -9.17748005	      8.59082644	      0.00000000	    -16.28571471	      8.21406784	     12.00690719	      3.24774701	     12.72413194	     -0.36081966	      0.00000000	     -5.15533404	     -3.77991935	      8.94636660	      8.26522288	     -4.31623422	     27.39783484	     82.69977309	    119.74817918	     -2.65950276	     -7.60452495	     27.07506221	     88.41216613	    119.74817918
      5.05000000	      4.44962766	    -15.01670636	    -65.50080411	      2.50327285	      1.10952624	      7.12291045	     -1.71889528	     -0.47794104	     -6.85606514	     29.90526623	     -6.59253764	      8.14315105	      0.00000000	    -15.33943306	      8.66581611	     11.79063661	      5.54187014	     13.52155669	     -0.93567736	      0.00000000	     -5.34623959	     -4.38914112	      8.60840040	      9.18037137	     -4.17069603	     26.73827333	     82.80405064	    119.74817918	     -2.64986664	     -8.33763905	     27.96954495	     88.30260456	    119.74817918
      5.06666670	      4.71891172	    -14.58950215	    -64.90055343	      2.50239112	      1.10749086	      7.12241042	     -2.14631104	     -0.64411654	     -6.84270720	     29.61272112	     -3.83319037	      8.15810196	      0.00000000	    -12.92696451	      9.05612755	      9.83009605	      9.54490400	     15.80548264	      1.44422234	      0.00000000	     -5.16898648	     -5.06623239	      7.86363624	      9.83974787	     -3.81809683	     25.59945802	     82.67328574	    119.74817918	     -2.40019586	     -9.17774522	     28.65260695	     88.21316723	    119.74817918
      5.08333330	      5.03694264	    -15.02714307	    -65.16475634	      2.50120926	      1.10691673	      7.12227276	     -3.54937677	     -0.41511034	     -5.92632982	     29.00947643	     -1.24823882	      8.29617071	      0.00000000	    -12.17044238	      9.43572727	      8.87249053	     11.98102112	     16.09889173	      0.35577470	      0.00000000	     -5.85438500	     -5.33915924	      7.69901650	     11.05933933	     -3.44264180	     24.52469887	     82.20747161	    119.74817918	     -2.41313456	     -9.58051695	     28.71590694	     87.86381278	    119.74817918
      5.10000000	      5.41400462	    -15.56243084	    -65.55254656	      2.49854291	      1.10578451	      7.12084503	     -4.73845326	     -0.36541832	     -5.69184405	     28.83174728	      1.64584284	      8.24429076	      0.00000000	    -11.07939152	      9.81148868	      7.74243701	     15.04301348	     16.50360760	     -0.86690071	      0.00000000	     -6.99028108	     -5.71172716	      7.57298690	     12.42848931	     -2.95329480	     23.59642843	     81.71953565	    119.74817918	     -1.77097064	     -9.76919540	     28.66763609	     87.42070631	    119.74817918
      5.11666670	      5.56972333	    -15.46176278	    -65.55879284	      2.49616794	      1.10292317	      7.11678453	     -4.53685573	     -0.75043140	     -6.35985924	     30.00309122	      4.97833259	      8.82213671	      0.00000000	     -8.56568197	     10.09954838	      6.18644490	     19.11428348	     17.39896247	     -1.20877870	      0.00000000	     -7.54903685	     -6.02326432	      7.47242506	     13.93024664	     -3.04320439	     23.33893329	     81.61609432	    119.74817918	     -0.20715733	    -10.00743002	     29.23307264	     86.38994470	    119.74817918
      5.13333330	      5.86465053	    -16.01772600	    -65.55765365	      2.49248722	      1.10144312	      7.11236585	     -5.10507083	     -0.46646480	     -5.44167412	     30.88641741	      7.99601098	      8.77168511	      0.00000000	     -7.17509917	     10.19200771	      5.65061064	     22.31281152	     17.44708090	     -2.12990814	      0.00000000	     -8.88972267	     -6.06784001	      7.36211743	     15.75096622	     -2.95644191	     23.58170208	     81.65589853	    119.74817918	      1.68790249	    -10.29785695	     29.91445280	     85.41982399	    119.74817918
      5.15000000	      5.55032871	    -16.25892826	    -65.84705323	      2.48909242	      1.09925369	      7.10921918	     -5.12757200	      0.24833592	     -4.81969395	     31.72049966	     10.70096279	      8.34219255	      0.00000000	     -5.32312528	      9.90974405	      4.90055256	     25.42136584	     17.34130450	     -3.80263375	      0.00000000	     -9.63100064	     -5.55387569	      7.71339858	     17.51552051	     -3.10211894	     24.54534186	     81.83082119	    119.74817918	      3.82769893	    -10.49916440	     31.10902736	     83.97220561	    119.74817918
      5.16666670	      4.97311137	    -16.55824830	    -66.51039365	      2.48608115	      1.09716547	      7.10554745	     -5.27909852	      1.02206994	     -4.90405429	     32.02796106	     11.91090830	      7.55989156	      0.00000000	     -3.29427464	      9.36034513	      3.59605447	     28.65857436	     17.09771391	     -5.41759961	      0.00000000	    -10.47579736	     -4.73294361	      8.07236172	     19.21025286	     -3.20100078	     25.21101310	     81.66822482	    119.74817918	      5.73674743	    -10.41502705	     31.96911533	     82.72707616	    119.74817918
      5.18333330	      4.09337971	    -16.87928392	    -67.05546609	      2.48323340	      1.09572590	      7.10324730	     -5.74927077	      2.12119279	     -5.47844048	     31.75185232	     12.03547988	      7.46431301	      0.00000000	     -1.38083843	      8.24098696	      2.05449369	     31.67989187	     16.89101530	     -6.45803231	      0.00000000	    -11.13390249	     -3.69053770	      8.50953091	     20.60301318	     -3.38310982	     25.51105842	     81.30406558	    119.74817918	      7.30434198	    -10.29447910	     32.54315840	     81.34398814	    119.74817918
      5.20000000	      3.57199209	    -17.18526585	    -67.40142397	      2.48076934	      1.09520936	      7.10208788	     -6.59939477	      2.81278235	     -6.31905710	     31.04968520	     12.00015095	      7.76117184	      0.00000000	     -0.02957895	      7.38744687	      0.50491493	     33.99515930	     15.92957687	     -7.73722778	      0.00000000	    -11.89496989	     -3.16454709	      8.93180016	     21.71066387	     -3.12129082	     25.59018548	     80.71573528	    119.74817918	      8.50343163	    -10.43941476	     32.65387586	     80.45435104	    119.74817918
